<?xml version="1.0" encoding="utf-8"?>
<!-- Generator: Adobe Illustrator 20.1.0, SVG Export Plug-In . SVG Version: 6.00 Build 0)  -->
<svg version="1.1" id="Layer_1" xmlns="http://www.w3.org/2000/svg" xmlns:xlink="http://www.w3.org/1999/xlink" x="0px" y="0px"
	 width="280.2900085px" height="168.2400055px" viewBox="0 0 280.2900085 168.2400055"
	 style="enable-background:new 0 0 280.2900085 168.2400055;" xml:space="preserve">
<style type="text/css">
	.st0{fill:#FFFFFF;}
	.st1{fill:#10253E;}
	.st2{fill:#00AEEA;}
	.st3{opacity:0.8;fill:url(#SVGID_1_);enable-background:new    ;}
</style>
<title>eliteserien_a_rgb</title>
<g>
	<g id="Design">
		<path class="st0" d="M211.7299957,82.7699966c1.7756805-4.7904053,3.2879333-9.6743698,4.5299988-14.6299973
			c1.6520538,0.6540527,3.4042053,1.0193634,5.1799927,1.0800018c-0.7400055-5-1.4799957-15.2900009-2-19.9000015
			c-0.7700043-7.1399994-7.4199982-14.1800003-12.9100037-19.1100006c-2.9671021-2.6879673-6.1327515-5.148283-9.4700012-7.3600006
			c-1.3909302-2.7787151-4.3088074-4.4561996-7.4100037-4.2600002c-13.5200043,0-24.5899963,2.2999992-35.8899994,7.460001
			c-4.0487366,1.7131767-7.3118591,4.876442-9.1499939,8.8699989c-3,2.2400017-9.6699982,7.4099998-11.2799988,8.7099991
			c-0.4614258,0.3773003-0.877533,0.8068352-1.2400055,1.2799988H0v82.2099991h109.6399994v27H280.289978V82.7699966H211.7299957z"
			/>
		<path class="st1" d="M213.7599945,50c-1-8.5600014-17.0700073-21.1399994-21.3500061-23.1900005
			c-0.3999939-1.3899994-0.6000061-2.4099998-2.0700073-2.4300003c-14.3200073-0.1299992-24.3600006,2.460001-34.1600037,6.9400005
			c-3.6100006,1.6500015-5.3699951,3.6699982-6.9400024,7.4000015c-1,0.6300011-10.1000061,7.6699982-12.2700043,9.4300003
			s1,6,2.5299988,7.8300018c0.6979065,0.8759193,1.4781494,1.6829376,2.3300323,2.409996
			c0.5599976,0.4199982,0.8600006,0.2099991,3-0.1399994c1,1.3800011,3.8600006,3.6500015,6.6600037,3.5299988
			c-0.7599945-0.5600014-1.4499969-2.6800003-1.5700073-4c6.1300049-0.5699997,10.8800049,2.8699989,12.4799957,6.3600006
			c-11.5399933-1.6800003-13.3000031,0.3499985-18.0599976,3.3899994c-4.3800049,2.8000031-7.4199982,3.1600037-10.1699982,1
			c2.7400055,10.3099976,13.6499939,1.5500031,16.1399994,0.9300003c-0.2799988,4,0.7200012,6.8000031,2.5200043,8.4000015
			c1.8399963-2.2200012,5.3800049-3.6800003,10-4l-13.4400024,13.4799957h54.3699951
			C207.4881287,79.2932053,210.0699158,70.7635574,211.4300079,62c1.005188,1.0864639,2.3544312,1.7928734,3.8200073,2
			C214.3000031,60.6599998,214.7400055,58.6300011,213.7599945,50z M200.7599945,67.5999985
			c-0.6499939-3.6599998-2.3600006-8-5.3099976-10.1399994C188.2299957,73.1699982,179.2100067,72,174.0400085,83.7200012
			c-5.6300049-10.8700027,8.3699951-13,4.8800049-25.9099998l-7.6699982,7.670002
			c2.5599976-5.7000008,3.6600037-11.9300003,0.1100006-16.1900024s-12.5399933-3.6500015-16.7799988-0.9500008
			c3.5299988,1.9399986,6.6799927,4.2099991,8.6100006,7.8499985c-6.6399994-3.5-14.5599976-2.9500008-21.4299927-0.6699982
			c-0.3186646-0.3130798-0.6159973-0.6471596-0.8899994-1c1.2700043-1.4300003,2.7899933-4.420002,2.5099945-5.3499985
			c-1.2783203,1.106575-2.6426239,2.1097374-4.0800018,3c-0.4799957-0.7999992-0.8999939-1.5900002-1.2100067-2.25
			c3-2.2999992,10-7.8699989,11.8699951-9.2400017c1.1952972-2.5513458,3.1750031-4.653698,5.6499939-6
			c9.8500061-4.7399998,23.4299927-6.7800007,30.3600006-6.8199997c1.6000061,7.7399979-3.5500031,14.5600014-3.5800018,14.6699982
			c0.0899963-2.9000015-0.3800049-7.9399986-2.3699951-10.0699997c-4.7469482,0.5795479-9.432373,1.5835686-14,3
			c12,3.0999985,16.6199951,10.4399986,18.3399963,16.8199997l12.5700073-12.5699997
			c3.0099945,5.7000008,7.1999969,14.4900017,3.8399963,27.8600006L200.7599945,67.5999985z M155.6599884,37.6699982
			c-1.3849335,1.2962341-2.4407959,2.9040337-3.0800018,4.6899986c1.8057861,0.2839737,3.5692902,0.7911911,5.2500153,1.5100021
			c1.4493408-2.9065361,3.473526-5.4886589,5.9499969-7.5900002c-2.7276306,0.935524-5.3199768,2.2266541-7.7100067,3.8400002
			c-0.0663452-0.8393822-0.2001038-1.6720657-0.3999939-2.4899979L155.6599884,37.6699982z"/>
		<path class="st2" d="M199.25,119.8000031c2.6999969-1,4.2599945-3.1200027,4.2599945-7.3799973v-9.5800018
			c0-6.1699982-3.0500031-9.2200012-9.2200012-9.2200012h-14.8399963v49.6700058h9.9299927v-18.8000031h2.4500122
			c0.8458557-0.1316986,1.6383057,0.4472427,1.7700043,1.2930908c0.0245972,0.15802,0.0245972,0.3188858,0,0.4769058v17.0000076
			h9.9300079v-17.0999985C203.5700073,122.5699997,202.3000031,120.6500015,199.25,119.8000031z M193.5700073,114.2700043
			c0.10672,0.8493652-0.4953156,1.6244202-1.3446808,1.7311325c-0.1312866,0.0164948-0.2641449,0.0161133-0.3953247-0.0011368
			h-2.4100037v-13.7300034h2.4100037c0.8458557-0.1316986,1.6383057,0.4472427,1.7700043,1.2930908
			c0.0245972,0.15802,0.0245972,0.3188858,0,0.4769058v10.2200012L193.5700073,114.2700043z M166.8899994,122.5h8.1600037
			v-8.8700027h-8.1600037v-11.1399994h8.5099945v-8.8699951h-18.4399872v49.6700058h18.5899963v-8.8699951h-8.6600037v-11.9300156
			V122.5z M149.3000031,117.5l-8.4700012-6.2900009c-1.1354065-0.6455612-1.7972717-1.8875198-1.6999969-3.1900024v-4.6800003
			c-0.1316986-0.8458481,0.4472504-1.6383057,1.2931061-1.7699966c0.1580048-0.0246048,0.3188782-0.0246048,0.4768982,0h0.7799988
			c0.8458557-0.1316986,1.6383057,0.4472427,1.7700043,1.2930908c0.0245972,0.15802,0.0245972,0.3188858,0,0.4769058v6.1200027
			h9.7200012v-7c0-6.1699982-3.1000061-9.2200012-9.0800018-9.2200012h-0.4799957l-14.2700043,14.2799988v2.8199997
			c0,3.5500031,0.9199982,5.6100006,4,7.8099976l8.5099945,6.3099976c1.1354065,0.6455612,1.7972717,1.8875198,1.6999969,3.1900024
			v6c0.1316986,0.8458557-0.4472351,1.6383057-1.2930908,1.7700043c-0.15802,0.0245972-0.3188934,0.0245972-0.4769135,0h-0.9499969
			c-0.8458557,0.1316986-1.6383057-0.4472351-1.7700043-1.2930908c-0.0245972-0.15802-0.0245972-0.3188934,0-0.4769135v-6.5100021
			h-9.7200012v7.4300003c0,6.1699982,3.0500031,9.2200012,9.2200012,9.2200012h5.5299988
			c6.1699982,0,9.2200012-3.0500031,9.2200012-9.2200012v-9.1500015c-0.0399933-3.7799911-0.9599915-5.6899872-4.0099945-7.8899918
			V117.5z M207.6900024,143.2599945h9.9300079V93.6200027h-9.9299927v49.6700058L207.6900024,143.2599945z M260.1199951,93.5899963
			l0.0700073,10.2900009l0.1400146,14.3300018l-5.7499847-24.6200027h-10.1400452v49.6699982h8.5899963l-0.1400146-14.3999939
			l-0.1400146-12.6299973l6.3099823,27.0000076h9.6499939V93.6200027h-8.5799866L260.1199951,93.5899963z M231.8800049,122.4699936
			h8.1600037v-8.8700027h-8.1600037v-11.109993h8.5099945v-8.8699951h-18.4400024v49.6700058h18.5899963v-8.8699951h-8.6600037
			v-11.9300156L231.8800049,122.4699936z"/>
		<path class="st1" d="M51.0699997,55.7599983H38.9700012v60.5200005h20.8600006v-10.8099976h-8.7600021V55.7599983z
			 M63.9499969,116.2799988h12.0999985V55.7599983H63.9500046C63.9500046,55.7599983,63.9500046,116.2799988,63.9499969,116.2799988
			z M23.6600018,90.9499969h9.9399967V80.1399994h-9.9399967V66.5699997h10.3799992V55.7599983H11.5599995v60.5200005h22.6499996
			v-10.8099976H23.6600018V90.9499969z M79.4800034,66.5699997h7.3499985v49.7099991h12.0999985V66.5699997h7.3499985V55.7599983
			H79.4800034V66.5699997z M132.1200104,66.5699997V55.7599983h-22.480011v60.5200005h10.8699951l10.8399963-10.8199997h-9.6100006
			V90.9499969h9.9400024V80.1399994h-9.9400024V66.5699997h10.3699951H132.1200104z"/>
	</g>
	<g id="Shadow">
		
			<radialGradient id="SVGID_1_" cx="70.2186813" cy="-148.6090546" r="143.9900055" gradientTransform="matrix(0.6 -0.55 -0.22 -0.24 65.1900024 76.4199982)" gradientUnits="userSpaceOnUse">
			<stop  offset="0.29" style="stop-color:#000000"/>
			<stop  offset="1" style="stop-color:#000000;stop-opacity:0"/>
		</radialGradient>
		<polygon class="st3" points="236.7700043,0 68.5199966,168.2400055 236.7700043,168.2400055 		"/>
	</g>
</g>
</svg>
